<svg width="34" height="32" viewBox="0 0 34 32" fill="none" xmlns="http://www.w3.org/2000/svg">
<path d="M9.82373 30.9999C10.2159 29.4874 11.3924 25.7058 16.8826 25.7058C22.3727 25.7058 23.5493 29.4874 23.9414 30.9999" stroke="black" stroke-width="2" stroke-linecap="round" stroke-linejoin="round"/>
<path d="M16.882 23.9411C18.8312 23.9411 20.4114 22.361 20.4114 20.4117C20.4114 18.4625 18.8312 16.8823 16.882 16.8823C14.9327 16.8823 13.3525 18.4625 13.3525 20.4117C13.3525 22.361 14.9327 23.9411 16.882 23.9411Z" stroke="black" stroke-width="2" stroke-linecap="round" stroke-linejoin="round"/>
<path d="M11.5884 9.82354C11.8825 9.31935 12.7649 8.05884 16.8825 8.05884C21.0001 8.05884 21.8824 9.31935 22.1766 9.82354" stroke="black" stroke-width="2" stroke-linecap="round" stroke-linejoin="round"/>
<path d="M16.882 8.05882C18.8312 8.05882 20.4114 6.47865 20.4114 4.52941C20.4114 2.58017 18.8312 1 16.882 1C14.9327 1 13.3525 2.58017 13.3525 4.52941C13.3525 6.47865 14.9327 8.05882 16.882 8.05882Z" stroke="black" stroke-width="2" stroke-linecap="round" stroke-linejoin="round"/>
<path d="M1 18.6471C1.34313 17.6387 2.37255 15.1177 7.17647 15.1177C11.9804 15.1177 13.0098 17.6387 13.3529 18.6471" stroke="black" stroke-width="2" stroke-linecap="round" stroke-linejoin="round"/>
<path d="M8.0592 13.353C10.0084 13.353 11.5886 11.7728 11.5886 9.8236C11.5886 7.87436 10.0084 6.29419 8.0592 6.29419C6.10996 6.29419 4.52979 7.87436 4.52979 9.8236C4.52979 11.7728 6.10996 13.353 8.0592 13.353Z" stroke="black" stroke-width="2" stroke-linecap="round" stroke-linejoin="round"/>
<path d="M20.4121 18.6471C20.7552 17.6387 21.7847 15.1177 26.5886 15.1177C31.3925 15.1177 32.422 17.6387 32.7651 18.6471" stroke="black" stroke-width="2" stroke-linecap="round" stroke-linejoin="round"/>
<path d="M25.7057 13.353C27.6549 13.353 29.2351 11.7728 29.2351 9.8236C29.2351 7.87436 27.6549 6.29419 25.7057 6.29419C23.7564 6.29419 22.1763 7.87436 22.1763 9.8236C22.1763 11.7728 23.7564 13.353 25.7057 13.353Z" stroke="black" stroke-width="2" stroke-linecap="round" stroke-linejoin="round"/>
</svg>
