<svg width="36" height="32" viewBox="0 0 36 32" fill="none" xmlns="http://www.w3.org/2000/svg">
<path d="M31.75 9H16.75C15.7554 9 14.8016 9.39509 14.0983 10.0983C13.3951 10.8016 13 11.7554 13 12.75V27.75C13 28.7446 13.3951 29.6984 14.0983 30.4017C14.8016 31.1049 15.7554 31.5 16.75 31.5H31.75C32.7446 31.5 33.6984 31.1049 34.4017 30.4017C35.1049 29.6984 35.5 28.7446 35.5 27.75V12.75C35.5 11.7554 35.1049 10.8016 34.4017 10.0983C33.6984 9.39509 32.7446 9 31.75 9ZM16.75 11.5H31.75C32.0815 11.5 32.3995 11.6317 32.6339 11.8661C32.8683 12.1005 33 12.4185 33 12.75V23.2L29 19.7875C28.3802 19.2776 27.6026 18.9987 26.8 18.9987C25.9974 18.9987 25.2198 19.2776 24.6 19.7875L15.5 27.375V12.75C15.5 12.4185 15.6317 12.1005 15.8661 11.8661C16.1005 11.6317 16.4185 11.5 16.75 11.5Z" fill="#231F20"/>
<path d="M19.25 17.75C20.2855 17.75 21.125 16.9105 21.125 15.875C21.125 14.8395 20.2855 14 19.25 14C18.2145 14 17.375 14.8395 17.375 15.875C17.375 16.9105 18.2145 17.75 19.25 17.75Z" fill="#231F20"/>
</svg>
